<svg version="1.1" xmlns="http://www.w3.org/2000/svg" xmlns:xlink="http://www.w3.org/1999/xlink" width="529.71549" height="277.61879" viewBox="0,0,529.71549,277.61879"><g transform="translate(-29.90089,-38.42401)"><g data-paper-data="{&quot;isPaintingLayer&quot;:true}" fill-rule="nonzero" stroke-linejoin="miter" stroke-miterlimit="10" stroke-dasharray="" stroke-dashoffset="0" style="mix-blend-mode: normal"><g stroke-width="0.5"><g><path d="M199.35246,256.44559c-0.12184,0.04537 -0.20894,1.2075 -0.89291,1.94483c-0.97119,1.04696 -2.62238,1.76936 -2.7823,1.79809c-2.05093,0.36818 -3.4446,-0.79523 -3.80873,-0.59903c-1.18524,0.63865 -4.09485,5.34908 -4.59131,4.89052c-0.29162,-0.26934 -0.82835,-0.88824 -1.18086,-1.27442c-2.51475,-2.75531 -6.6136,-8.52587 -6.04735,-8.76107c1.11458,-0.46303 4.39003,-1.68944 5.15108,-2.51248c0.83875,-0.90706 -0.07335,-2.17842 -0.36335,-2.72015c-0.37416,-0.6989 -0.90348,-1.46495 -1.65004,-2.19396c-1.78544,-1.74347 -5.52593,-3.11755 -6.37852,-3.95404c-2.19315,-2.15176 -5.27587,-8.18865 -5.27587,-8.18865c0,0 -1.44925,-5.52186 0.66324,-9.424c1.52593,-2.81866 6.2613,-4.72949 8.91308,-3.84441c3.01254,1.00547 5.89502,9.23044 5.89502,9.23044l0.61866,8.17423c0,0 5.65545,0.33488 7.63923,3.4342c4.81887,7.52876 22.2159,1.04384 22.2159,1.04384l1.37634,6.63229l-19.54723,6.39387" fill="#0292ca" stroke="#000000" stroke-linecap="round"/><path d="M191.44316,259.86205l-6.04608,-7.86147" fill="none" stroke="#000000" stroke-linecap="round"/><path d="M198.96574,256.96621c-0.62595,-1.41102 -2.09232,-2.03472 -2.02294,-4.82738c0,0 -0.1716,-0.5465 0.26748,-0.4222c0.43913,0.12431 0.31562,0.61437 0.31562,0.61437c0.15178,0.48747 0.0396,1.31639 0.24467,1.8202c0.34694,0.8524 1.30986,1.61262 1.68419,2.45471l-0.1185,0.27993c0,0 0.2519,0.48516 -0.21234,0.25612c-0.46424,-0.2291 -0.17165,0.49523 -0.17165,0.49523z" fill="#000000" stroke="none" stroke-linecap="butt"/></g><path d="M252.42745,227.54904l4.8614,6.54363l-31.80229,17.59833l-4.65335,-0.84149l-2.88504,-6.48184z" fill="#c6e5f3" stroke="#000000" stroke-linecap="round"/><path d="M226.04424,240.51354c0,0 -1.99272,1.31724 -2.54734,2.2571c-0.20079,0.34027 -0.55397,0.76116 -0.67137,1.24201c-0.22833,0.93514 -0.11571,1.94258 -0.11571,1.94258c0,0 0.25274,1.26575 0.99277,2.24636c0.37095,0.49156 1.20219,0.84644 1.50717,1.06489c0.64925,0.46499 3.38294,0.3948 3.38294,0.3948l-9.45882,8.66206c0,0 -3.31726,0.24965 -6.53218,-2.76007c-1.42294,-1.33211 -3.81431,-5.94361 -4.20585,-7.00074c-1.336,-3.60722 2.89347,-11.4199 2.89347,-11.4199z" fill="#0292ca" stroke="#000000" stroke-linecap="round"/></g><path d="" fill="none" stroke="#000000" stroke-width="0.5" stroke-linecap="round"/><path d="M349.04748,153.23073c-3.78016,2.73976 -8.42623,2.77848 -10.37723,0.08655c-1.95103,-2.69191 -0.46822,-7.09517 3.31192,-9.83491c3.78016,-2.73976 8.42619,-2.77846 10.37723,-0.08655c1.95103,2.69191 0.46822,7.09517 -3.31192,9.83491z" fill="#c5bf00" stroke="#e1da00" stroke-width="0" stroke-linecap="butt"/><path d="M342.68041,152.38668l92.06151,77.53029c0,0 -4.27102,6.01144 -9.49973,9.53159c-2.23122,1.50213 -4.87523,6.4308 -9.10447,9.0952c-2.28274,1.43814 -7.07108,0.64482 -9.70597,2.19494c-2.46791,1.45188 -6.70026,8.52409 -9.24718,10.07529c-2.53801,1.54573 -7.00648,1.22956 -9.42491,2.55369c-3.4343,1.88036 -5.3401,7.45835 -8.08337,9.05248c-2.29373,1.3329 -4.99529,-0.20434 -6.86142,0.35906c-4.39567,1.32711 -6.7363,3.36423 -6.7363,3.36423l-65.4237,-48.06138l-12.90163,-17.48378z" fill="#fef15e" stroke="#000000" stroke-width="0.5" stroke-linecap="round"/><path d="M501.4085,212.17966l-58.83173,13.32692l14.93274,-12.14936l46.30509,-9.27788z" fill="#fef15e" stroke="#000000" stroke-width="0.5" stroke-linecap="round"/><path d="M318.28136,143.75633l26.61734,17.66035c0,0 -2.55682,3.18598 -5.74635,5.98818c-1.27817,1.12294 -6.39025,1.80438 -8.81645,3.90041c-4.46164,3.85451 -5.64763,10.34253 -11.29904,15.71485c-2.79684,2.65868 -9.32539,5.20586 -12.3368,7.6533c-2.4803,2.01581 -2.85188,6.09462 -4.81203,7.81643c-5.78262,5.07951 -11.00961,6.38718 -11.00961,6.38718c0,0 -37.79861,0.71382 -34.14963,-9.17664c0.39724,-1.07667 20.71224,-19.62109 21.86278,-21.07431c1.07921,-1.36311 2.82259,-0.3243 4.53679,-1.87974c1.00869,-0.91527 4.6913,-8.194 5.83935,-9.18547c0.95202,-0.82212 5.31462,-0.86303 6.2869,-1.61306c2.8433,-2.19333 5.01046,-6.53496 7.21467,-8.18966c0.59524,-0.44687 0.23568,-1.64022 0.47167,-2.55146c0.43212,-1.66862 1.2348,-3.24527 2.05782,-3.59701c0.94592,-0.40426 2.66336,-0.34969 4.87617,-1.6682c3.79721,-2.26268 8.40649,-6.18514 8.40649,-6.18514z" fill="#f4ea74" stroke="none" stroke-width="0" stroke-linecap="butt"/><path d="M329.93984,285.45263c0,0 8.9212,13.47184 10.10624,16.07502c0.13484,0.29621 0.15593,0.87972 0.13508,1.45703c-0.02884,0.79787 -0.58395,2.08385 -0.58395,2.08385c0,0 -2.26219,-0.06203 -3.44944,-0.06638c-3.53717,-0.01299 -20.04251,-0.01981 -20.04251,-0.01981l4.36022,-10.92416l8.84002,3.17405l-11.87989,-21.15007l1.89564,-2.12448l17.98003,9.5338z" fill="#c6e5f3" stroke="#000000" stroke-width="0.5" stroke-linecap="round"/><path d="M330.72154,156.79555c-1.69542,1.90008 -4.18224,2.44779 -5.55452,1.22333c-1.37228,-1.22446 -1.11032,-3.75741 0.58507,-5.65748c1.69542,-1.90008 4.18225,-2.44777 5.55454,-1.22331c1.37228,1.22446 1.11031,3.75739 -0.58509,5.65745z" fill="#c5bf00" stroke="none" stroke-width="0" stroke-linecap="butt"/><g data-paper-data="{&quot;index&quot;:null}" stroke-width="0.5"><path d="M301.97379,290.06554l6.50354,4.80575l-2.60298,8.16136c0,0 -5.57623,-6.60733 -12.812,-1.38856c-2.9787,2.14837 -8.35808,0.37818 -8.35808,0.37818l-3.56796,7.36395c0,0 -5.69078,6.57794 -8.85908,6.40316c-2.7889,-0.15386 -6.49077,-3.67111 -6.87709,-6.85038c-0.53483,-4.40143 2.83406,-8.99638 2.83406,-8.99638c0,0 5.07575,-4.47216 7.90213,-5.66346c1.09879,-0.46311 5.07868,-0.36277 7.3766,-1.32493c0.96087,-0.40233 1.73336,-0.91901 2.33703,-1.43039c0.46792,-0.39641 1.78116,-1.2415 1.33366,-2.39257c-0.40607,-1.04445 -3.00154,-3.3888 -3.86802,-4.22897c-0.44016,-0.42684 5.48252,-4.27769 8.82885,-5.9112c0.46907,-0.22897 1.19458,-0.60619 1.56427,-0.74903c0.62935,-0.24317 1.60916,5.20227 2.47698,6.23156c0.26661,0.31626 1.98803,-0.2514 3.75957,0.84525c0.13811,0.08551 1.40837,1.36405 1.9278,2.6938c0.3658,0.93644 0.02126,2.04782 0.11787,2.13475" fill="#0292ca" stroke="#000000" stroke-linecap="round"/><path d="M287.39187,289.14011l8.49822,-5.07617" fill="none" stroke="#000000" stroke-linecap="round"/><path d="M310.80382,310.92242c0,0 -5.49374,-6.98136 -4.79282,-10.75827c0.20541,-1.10683 1.77427,-6.05022 2.94823,-7.60139c2.65231,-3.50471 5.96034,-3.81708 5.96034,-3.81708l10.78616,6.93782c0,0 -2.70299,0.3909 -3.26291,0.95803c-0.26306,0.26641 -1.02088,0.75581 -1.30234,1.30223c-0.56153,1.09015 -0.59472,2.37907 -0.59472,2.37907c0,0 0.06072,1.01099 0.44467,1.89337c0.19744,0.45373 0.61678,0.8088 0.87237,1.11005c0.70604,0.83215 2.89194,1.79391 2.89194,1.79391z" fill="#0292ca" stroke="#000000" stroke-linecap="round"/><path d="M301.92654,289.36118c0.34724,-0.02823 0.32713,0.6654 0.32713,0.6654c-0.6563,0.64432 -2.06378,1.36666 -2.69836,2.03059c-0.37505,0.39247 -0.13321,0.91934 -0.45273,1.31621c0,0 -0.33134,0.07821 -0.4719,0.06392c-0.15949,-0.01622 -0.43547,-0.15619 -0.43547,-0.15619c0.16616,-0.45424 0.296,-0.96519 0.64161,-1.37658c1.00793,-1.19979 2.61955,-2.0451 2.61955,-2.0451z" fill="#000000" stroke="none" stroke-linecap="butt"/></g><path d="M242.2384,202.64546l35.01768,-24.20069c0,0 3.81024,6.5206 5.66718,12.00122c1.849,5.45711 4.39693,11.189 6.38943,15.86709c1.09537,2.57182 0.57879,2.95735 3.34735,5.55648c2.15497,2.02309 5.16343,4.49364 9.41187,7.41818c7.96454,5.48266 18.66877,13.3869 26.55871,19.02908c24.02823,17.18291 48.44192,35.61258 48.44192,35.61258c0,0 -9.72384,4.24081 -18.90134,9.69358c-2.9932,1.77838 -5.99046,3.30618 -8.69938,4.72228c-1.63329,0.8538 -3.05802,1.81116 -4.60752,2.35023c-1.39284,0.48457 -2.08797,3.00883 -3.88536,2.43446c-2.71344,-0.8671 -8.02662,-5.23066 -11.82806,-7.69153c-8.02303,-5.19373 -17.3347,-11.13659 -28.31604,-18.54136c-6.01159,-4.05363 -12.03785,-8.09377 -17.70738,-11.88146c-17.36477,-11.60106 -31.383,-20.83409 -31.383,-20.83409z" fill="#0392d0" stroke="#ff0000" stroke-width="0" stroke-linecap="butt"/><path d="M376.74721,273.48747l-35.7117,19.63108c0,0 -84.78946,-54.5976 -89.4695,-57.62346c-0.40197,-0.2599 0.05983,-0.1836 0.05983,-0.1836c0,0 3.11204,-1.66594 5.17586,-2.82907c5.93465,-3.34465 33.41695,-22.16789 33.41695,-22.16789z" fill="none" stroke="#000000" stroke-width="0.5" stroke-linecap="round"/><path d="M277.21987,179.18798l13.15634,31.01615l-39.21404,24.35034l-9.53055,-33.56532z" fill="none" stroke="#000000" stroke-width="0.5" stroke-linecap="round"/><path d="M241.29522,200.92904z" fill="none" stroke="#000000" stroke-width="0.5" stroke-linecap="round"/><path d="M377.04876,273.36649l-35.71172,19.63109c0,0 -84.27362,-54.20403 -88.95367,-57.22989c-0.40197,-0.2599 -0.45603,-0.5772 -0.45603,-0.5772c0,0 3.11205,-1.66594 5.17587,-2.82906c5.93465,-3.34465 33.11273,-21.68629 33.11273,-21.68629z" fill="none" stroke="#000000" stroke-width="0.5" stroke-linecap="round"/><g fill="#000000" stroke-width="0.5" stroke-linecap="butt"><path d="M329.82167,247.86663c-0.76902,1.24338 -3.6396,0.728 -6.41164,-1.15122c-2.77203,-1.87923 -4.39578,-4.41062 -3.62678,-5.65402c0.76902,-1.24338 3.63963,-0.72797 6.41167,1.15125c2.77203,1.87923 4.39574,4.41065 3.62675,5.65406z" stroke="#000000"/><path d="M312.83801,241.39803c-0.32734,-0.55285 0.20331,-0.82692 0.20331,-0.82692l0.51736,-0.25484c1.02136,-0.29041 2.11642,-0.71054 2.94031,-0.30446c1.31038,0.64584 2.248,2.24589 3.48226,1.18695c0,0 0.45207,-0.38186 0.88151,0.10283c0.42941,0.48473 -0.02267,0.86659 -0.02267,0.86659c-2.02711,1.69019 -3.1549,-0.44674 -4.73019,-1.11047c-0.59748,-0.25171 -1.34184,0.22398 -2.10332,0.44632l-0.31054,0.17278c0,0 -0.53067,0.27408 -0.858,-0.27871z" stroke="none"/><path d="M320.22744,248.39005c0.19814,-0.35726 0.32909,-0.04564 0.32909,-0.04564c0.71058,0.02768 1.54255,0.0027 2.0412,-0.2661c0.54855,-0.29569 1.42922,-1.05471 1.88129,-1.56772c0,0 0.07099,-0.48512 0.57849,-0.0368c0.50752,0.44833 0.09957,0.9112 0.09957,0.9112c-1.11795,1.26835 -1.9759,2.27186 -3.89201,2.2488l-0.76047,-0.35318c0,0 -0.57763,-0.34882 -0.27716,-0.89062z" stroke="none"/><path d="M329.25779,252.70854l0.00428,-0.19709c0.018,-0.70369 0.18511,-1.04924 -0.09999,-1.309c-0.54199,-0.49384 -1.76911,-0.61494 -2.09728,-1.85713c0,0 -0.09837,-0.61572 0.51731,-0.65642c0.6157,-0.0407 0.71406,0.57505 0.71406,0.57505c-0.03673,0.28251 0.99021,0.68825 1.65357,1.513c0.38965,0.48439 0.57117,1.22041 0.55903,1.87475l-0.0043,0.19706c0,0 -0.01335,0.61307 -0.63672,0.54293c-0.62337,-0.07013 -0.60999,-0.68314 -0.60999,-0.68314z" data-paper-data="{&quot;index&quot;:null}" stroke="none"/><path d="M314.91539,243.95835c-0.11892,-0.53271 0.4106,-0.60153 0.4106,-0.60153l0.22851,-0.02383c1.55879,-0.4392 3.8106,1.51623 4.52993,0.4379c0,0 0.30059,-0.41789 0.7525,-0.08041c0.45195,0.33751 0.15134,0.75538 0.15134,0.75538c-1.55891,2.06637 -3.05141,-0.66775 -5.04368,-0.079l-0.3807,0.05539c0,0 -0.52956,0.06881 -0.64851,-0.46391z" stroke="none"/></g><path d="M314.49888,145.67055l27.06313,-53.60277l53.8258,4.08179l88.8243,89.88071l-51.50455,50.14515l-14.8908,-6.04294l-1.75799,-3.98324l-18.33239,-21.66985c0,0 -20.2415,-6.44093 -31.83487,-16.29139c-7.38562,-6.27527 -19.55518,-25.69968 -19.55518,-25.69968z" fill="#0193d2" stroke="#000000" stroke-width="0.5" stroke-linecap="round"/><path d="M393.99105,96.35206c0,0 -13.53961,25.3027 -21.38797,36.44892c-7.81401,11.09743 -26.07934,30.82047 -26.07934,30.82047" fill="none" stroke="#000000" stroke-width="0.5" stroke-linecap="round"/><path d="M427.96806,139.9473l23.84843,23.4529l-23.52457,0.06816z" fill="#f9f068" stroke="#000000" stroke-width="0.5" stroke-linecap="round"/><path d="M411.76749,179.92296c-11.10787,12.44883 -26.97568,16.41679 -35.44173,8.86267c-8.46606,-7.55411 -6.32442,-23.76969 4.78344,-36.21853c6.76765,-7.58463 14.9452,-13.79354 22.49614,-14.3941c4.84258,-0.38514 3.68125,8.16893 6.98924,11.12057c2.60322,2.3228 1.20023,7.3936 3.06815,9.8455c1.26509,1.6606 1.00167,5.4341 2.28158,6.79897c1.31801,1.4055 2.62541,0.76137 1.30645,3.67299c-0.86406,1.90739 0.37582,2.96656 -0.46078,4.73414c-0.77001,1.62687 -3.58618,3.96809 -5.02251,5.5778z" fill="#fafafa" stroke="#000000" stroke-width="0.5" stroke-linecap="butt"/><path d="M417.07662,174.55435c1.48623,-0.8923 2.59897,0.14211 4.2077,-0.78589c2.45572,-1.41664 2.04204,-0.18791 3.47686,0.88989c1.3933,1.04663 4.76048,0.51377 6.41848,1.52392c2.44799,1.49147 6.83887,-0.16987 9.26435,1.99435c3.08213,2.75012 10.64306,1.03391 10.91384,5.42824c0.42217,6.85208 -7.59806,14.52117 -13.57,21.21404c-6.10962,6.84717 -13.79138,10.51755 -21.34433,9.77957c-4.56452,-0.44595 -9.69066,-3.1989 -12.66198,-5.85018c-7.88807,-7.03838 -0.89279,-18.24578 8.90908,-29.23096c1.26746,-1.42046 3.0181,-4.14169 4.38603,-4.963z" data-paper-data="{&quot;index&quot;:null}" fill="#fafafa" stroke="#000000" stroke-width="0.5" stroke-linecap="butt"/><g data-paper-data="{&quot;index&quot;:null}" stroke-linecap="butt"><path d="M426.52092,196.74812c-4.92941,5.5245 -12.0192,7.24255 -15.83545,3.83736c-3.81626,-3.40518 -2.91389,-10.64413 2.01552,-16.16863c4.92941,-5.5245 12.01923,-7.24255 15.83549,-3.83737c3.81626,3.40518 2.91386,10.64415 -2.01556,16.16865z" fill="#65bee4" stroke="#000000" stroke-width="0.5"/><path d="M423.15925,193.9253c-2.69784,3.02355 -6.50872,4.02572 -8.51184,2.23836c-2.00309,-1.78732 -1.43987,-5.68732 1.25799,-8.71086c2.69784,-3.02355 6.50871,-4.02571 8.51184,-2.23836c2.00309,1.78732 1.43988,5.68733 -1.25797,8.71086z" fill="#000000" stroke="none" stroke-width="0"/><path d="M426.42614,190.19752c-0.91244,1.02258 -2.19094,1.37077 -2.85564,0.77767c-0.6647,-0.5931 -0.46382,-1.90284 0.44863,-2.92542c0.91244,-1.02258 2.19094,-1.37078 2.85562,-0.7777c0.6647,0.5931 0.46385,1.90285 -0.4486,2.92544z" fill="#ffffff" stroke="none" stroke-width="0"/></g><path d="M314.93432,145.93088l26.58061,-53.60324l52.50121,3.88335c0,0 -13.29996,24.43108 -21.64198,36.40164c-7.18646,10.31236 -25.63361,30.34077 -25.63361,30.34077z" fill="#014e8a" stroke="none" stroke-width="0" stroke-linecap="butt"/><path d="M412.20902,131.83403l7.14617,40.0573l41.75315,9.14782l-0.12232,9.09859l-44.03826,-15.54833l-14.5409,-43.99011z" fill="#000000" stroke="#000000" stroke-width="0.5" stroke-linecap="round"/><path d="M314.65094,146.18194l27.06311,-53.60277l53.82579,4.08179l88.8243,89.88071l-51.50459,50.14513l-14.89078,-6.04291l-1.75799,-3.98324l-18.3324,-21.66983c0,0 -20.24149,-6.44093 -31.83486,-16.29139c-7.38562,-6.27527 -19.55519,-25.69969 -19.55519,-25.69969z" fill="none" stroke="#000000" stroke-width="0.5" stroke-linecap="round"/><path d="M433.85316,218.31823c-0.34081,0.38197 -0.25604,4.4143 -1.56573,4.72055c-1.53782,0.35962 -1.38341,1.9841 -2.33724,2.31636c-1.25828,0.43831 -2.20227,1.55776 -5.37296,1.30005c-3.37998,-0.27475 -14.7835,-3.81507 -15.63205,-4.57221c-1.63299,-1.45711 -6.07891,-4.95688 -12.20072,-8.66442c-1.83713,-1.1126 -5.93473,-4.71579 -7.06121,-5.75203c-1.40901,-1.2961 -2.00976,-5.23295 -1.59362,-5.69934c0.45117,-0.50564 3.53016,1.28623 6.18959,1.72731c8.2896,1.37478 22.63054,4.72836 24.702,6.57668c0.83582,0.74578 4.73692,1.06902 6.90105,1.94492c4.92006,1.99126 9.26092,4.65636 7.97087,6.10216z" fill="#fef15e" stroke="#000000" stroke-width="0" stroke-linecap="butt"/><path d="M392.5896,202.45076c0,0 31.77632,9.39624 37.95223,11.67137c5.36723,1.97724 3.86703,9.99324 -2.74347,12.18751c-4.58231,1.52104 -13.32909,-1.75675 -16.88434,-3.51189c-10.40091,-5.1347 -22.08543,-15.44652 -22.08543,-15.44652" fill="none" stroke="#000000" stroke-width="0.5" stroke-linecap="round"/><path d="M241.26948,200.60997l35.49641,-21.27704c0,0 1.19819,2.83925 2.24202,5.31273c2.41667,5.72655 11.71554,25.47562 11.71554,25.47562l-38.91563,25.12909z" fill="#014e8a" stroke="none" stroke-width="0" stroke-linecap="butt"/><path d="M277.14571,179.02355l13.50099,31.09664c0,0 -4.79081,3.11189 -8.49819,5.52004c-7.01947,4.55952 -30.46503,19.78859 -30.46503,19.78859l-10.12601,-34.60413z" fill="none" stroke="#000000" stroke-width="0.5" stroke-linecap="round"/><path d="M344.17148,162.09324c0,0 -2.60021,3.22159 -5.52909,5.95888c-1.14469,1.06984 -6.68306,1.05015 -8.83732,3.03698c-3.40904,3.14408 -3.66345,9.78337 -8.17232,14.28502c-1.41502,1.41273 -3.14226,3.32124 -4.88643,4.19154c-2.69941,1.34693 -6.35215,1.13885 -8.6474,3.15272c-3.55277,3.11719 -3.34843,7.48892 -6.05975,10.35241c-4.84783,5.11988 -11.59941,6.59553 -11.59941,6.59553" fill="none" stroke="#000000" stroke-width="0.5" stroke-linecap="round"/><path d="M314.94133,145.15425c0,0 -1.88527,2.3358 -4.00886,4.32049c-0.82997,0.77568 -4.84553,0.76141 -6.40751,2.20197c-2.47174,2.27961 -2.65617,7.09343 -5.92536,10.35736c-1.02591,1.02432 -2.27829,2.40809 -3.54291,3.03908c-1.95724,0.97662 -4.60561,0.82573 -6.26981,2.28589c-2.57593,2.26015 -2.42776,5.42989 -4.39363,7.50605c-3.51493,3.71218 -8.41014,4.78208 -8.41014,4.78208" fill="none" stroke="#000000" stroke-width="0.5" stroke-linecap="round"/><path d="M304.4054,165.47769c0,0 -1.0029,-3.99653 -0.91636,-7.43288c0.05566,-2.20926 1.17642,-4.34676 1.26537,-4.51216c0.66705,-1.24034 2.31222,-4.08362 4.14427,-6.37405c1.72168,-2.15251 4.13427,-3.83237 4.43438,-3.8767c0.92543,-0.13663 2.19715,-0.17545 3.20078,0.35288c2.25541,1.18726 3.78253,4.27522 4.03899,4.68756c0.82056,1.31938 1.92282,3.65997 1.70412,6.47118c-0.25309,3.25371 -3.4896,7.68574 -4.6051,9.01637c-2.5914,3.09113 -11.72205,2.6434 -11.72205,2.6434z" fill="#0392d0" stroke="#000000" stroke-width="0.5" stroke-linecap="round"/><path d="M314.50759,156.11246c-0.68333,1.83208 -2.22251,3.66127 -2.22251,3.66127l-56.7153,12.31287l14.93273,-12.14935l43.59098,-8.33494z" fill="#fef15e" stroke="#000000" stroke-width="0.5" stroke-linecap="round"/><path d="M309.92942,165.15956c-0.34336,-0.25183 -0.09149,-0.5952 -0.09149,-0.5952l0.07376,-0.07909c0.86422,-2.08138 2.33639,-3.77737 3.11726,-5.94113c1.40979,-3.15072 1.54805,-7.97839 -0.49957,-10.77374c0,0 -0.25158,-0.34353 0.09195,-0.59511c0.34353,-0.25159 0.59514,0.09197 0.59514,0.09197c2.23642,3.05462 2.09866,8.13836 0.60318,11.59311c-0.78125,2.15896 -2.28671,3.8659 -3.11959,5.94696l-0.17546,0.26071c0,0 -0.25185,0.34339 -0.59519,0.09152z" fill="#000000" stroke="none" stroke-width="0.5" stroke-linecap="butt"/><g stroke-width="0.5"><path d="M388.09202,217.52624c0,0 -16.37528,15.85915 -29.20958,19.18742c-7.39608,1.91798 -15.5701,5.22706 -21.86039,4.06999c-3.78841,-0.69685 -7.34193,-3.41372 -8.36464,-7.90034c-0.36352,-1.59483 -0.5091,-3.17505 -0.54386,-4.54654c-0.12203,-4.81401 3.09772,-12.0187 4.87244,-15.98251c4.96326,-11.08527 26.53958,-36.17231 26.53958,-36.17231c0,0 9.20604,21.78182 15.28134,29.20826c6.17255,7.54528 22.50448,19.21051 22.50448,19.21051z" fill="#000000" stroke="#000000" stroke-linecap="round"/><path d="M365.17196,160.80217c0,0 11.01902,6.21699 12.37069,13.11044c0.2182,1.11288 1.08139,5.07736 -0.34172,7.3269c-1.13324,1.79136 -3.41029,2.18591 -4.13548,2.38275c-5.88027,1.59595 -10.72778,-6.52573 -13.19363,-12.0525c-1.24908,-2.79962 -1.74426,-4.80599 -1.74426,-4.80599" fill="#0193d2" stroke="#000000" stroke-linecap="round"/><path d="M377.09881,208.03707l-9.00491,8.39255l-9.50305,-9.74306l11.17166,-9.10596c0,0 1.88677,3.21863 2.96546,4.78048c1.30417,1.88832 4.37084,5.67598 4.37084,5.67598z" fill="#ffffff" stroke="#000000" stroke-linecap="round"/><path d="M390.10988,219.09283l-8.19704,9.34897l-10.07748,-7.543l9.13508,-9.24805c0,0 2.29239,2.03739 3.66378,3.17353c1.61543,1.33832 5.47566,4.26856 5.47566,4.26856z" fill="#ffffff" stroke="#000000" stroke-linecap="round"/><path d="M330.66308,218.00752c-0.61811,-0.20735 0.0713,-0.99007 0.0713,-0.99007c1.29127,-3.33004 2.69898,-6.93474 5.02215,-9.64016c0.03357,-0.35135 0.52375,-0.68152 0.52375,-0.68152c4.01232,-1.90241 6.64102,1.38238 7.84085,5.28081c5.12424,-3.31048 9.89435,8.3507 6.26525,12.39985c-4.7506,8.49563 -10.3554,5.42913 -16.39428,0.04072c-2.05008,-1.84414 -3.01015,-3.79184 -3.2918,-6.39792c-0.01223,-0.00356 -0.02465,-0.00745 -0.03719,-0.01168zM331.71916,216.98155l-0.04729,0.14153c0.54551,2.33187 1.72406,4.96382 3.21992,6.28567c5.54862,4.95093 10.00941,8.02445 14.39404,0.18332c2.90266,-3.26689 -1.41159,-13.49254 -4.80231,-10.20542c0.33638,1.61984 0.39329,3.2007 0.14477,4.38555c-0.048,0.44669 -0.09627,0.89335 -0.14481,1.33999l-0.184,0.56384c0,0 -0.23045,0.63518 -0.86563,0.40475c-0.63522,-0.23045 -0.40474,-0.86565 -0.40474,-0.86565l0.11091,-0.249c0.05097,-0.46878 0.10218,-0.93758 0.15371,-1.40633c0.63663,-3.01883 -1.66352,-11.84425 -6.3731,-9.79809c-0.00718,0.01218 -0.54058,-0.20748 -0.97595,0.02378c-0.49908,0.26504 -0.93603,1.03387 -1.43546,1.9192c-1.51594,2.68725 -2.79003,7.2768 -2.79003,7.2768z" fill="#000000" stroke="none" stroke-linecap="butt"/><path d="M334.42823,209.5965c0.49944,-0.88533 0.96008,-1.66833 1.45914,-1.93338c4.41996,-2.34739 8.57191,4.97532 7.53923,9.87225c-0.05151,0.46873 -0.10974,1.01109 -0.16074,1.47988l-0.11676,0.26203c0,0 -0.45803,0.49121 0.17719,0.72166c0.63522,0.23045 0.8505,-0.37961 0.8505,-0.37961l0.17683,-0.54464c0.04854,-0.44664 0.09183,-0.84681 0.13982,-1.2935c0.24852,-1.18484 0.41125,-2.8799 0.07488,-4.49972c3.39072,-3.2871 7.73342,7.11746 4.83076,10.38436c-4.38464,7.84113 -9.50153,5.51098 -15.05014,0.56005c-2.47359,-2.18585 -3.66135,-5.24567 -2.65867,-8.3907c0.50597,-1.58703 1.72847,-4.44915 2.73795,-6.23862z" data-paper-data="{&quot;noHover&quot;:false,&quot;origItem&quot;:[&quot;Path&quot;,{&quot;applyMatrix&quot;:true,&quot;segments&quot;:[[136.10004,398.12113],[[136.14365,398.22257],[0,0],[1.45001,1.01876]],[[141.01818,400.10678],[-1.47715,0.00711],[5.5027,0]],[[149.05595,393.11663],[1.44211,6.48948],[-0.00682,-3.23378]],[[141.37662,389.84778],[0.25269,-3.4854],[0.98376,0.72865]],[[143.61715,392.19787],[-0.44652,-0.77662],[0.19357,0.27028]],[[144.19734,393.00908],[-0.19323,-0.27052],[0,0]],[144.37353,393.41104],[[144.09498,394.06098],[0.46424,-0.1857],[-0.46424,0.1857]],[143.44505,393.78243],[[143.38361,393.59032],[0,0],[-0.20282,-0.28394]],[[142.77565,392.73813],[0.20249,0.28418],[-1.13575,-1.98044]],[[134.42972,390.46802],[1.59224,-3.44997],[0.00204,0.01027]],[[133.90257,390.96197],[0.12647,-0.34218],[-0.14497,0.39221]],[[134.05552,392.72881],[-0.16041,-0.73486],[0.48689,2.23056]]],&quot;closed&quot;:true}]}" fill="#f88862" stroke="none" stroke-linecap="butt"/></g><path d="M397.36641,247.67762c-3.78017,2.73973 -8.42622,2.77848 -10.37721,0.08654c-1.95103,-2.69191 -0.46821,-7.09517 3.31196,-9.83489c3.78017,-2.73973 8.42619,-2.77846 10.37721,-0.08653c1.95103,2.69191 0.46821,7.09517 -3.31196,9.83489z" fill="#c5bf00" stroke="#e1da00" stroke-width="0" stroke-linecap="butt"/><path d="M320.02159,213.24172c-3.1189,3.47394 -7.65273,4.48966 -10.1266,2.26862c-2.47388,-2.22101 -1.95096,-6.83772 1.16792,-10.31167c3.1189,-3.47394 7.65271,-4.48964 10.12656,-2.26861c2.47388,2.22101 1.951,6.83769 -1.1679,10.31163z" fill="#c5bf00" stroke="#e1da00" stroke-width="0" stroke-linecap="butt"/><path d="M326.24494,194.85411c-1.69542,1.90008 -4.18225,2.44776 -5.55454,1.2233c-1.37228,-1.22446 -1.11035,-3.7574 0.58506,-5.65748c1.69542,-1.90008 4.18227,-2.44778 5.55455,-1.22331c1.37228,1.22446 1.11033,3.75741 -0.58507,5.65748z" fill="#c5bf00" stroke="none" stroke-width="0" stroke-linecap="butt"/><path d="M374.99691,258.08285c-1.74721,1.11507 -4.07296,0.85382 -5.19466,-0.5835c-1.12171,-1.43734 -0.61465,-3.50646 1.13256,-4.62153c1.74721,-1.11507 4.07295,-0.85381 5.19467,0.58353c1.12171,1.43733 0.61465,3.50642 -1.13256,4.62149z" fill="#c5bf00" stroke="none" stroke-width="0" stroke-linecap="butt"/><path d="M311.87034,183.66068c-3.78016,2.73976 -8.42622,2.77848 -10.37723,0.08655c-1.95103,-2.69191 -0.4682,-7.09519 3.31195,-9.83491c3.78016,-2.73976 8.42619,-2.77846 10.37721,-0.08653c1.95103,2.69191 0.4682,7.09517 -3.31196,9.83489z" fill="#c5bf00" stroke="#e1da00" stroke-width="0" stroke-linecap="butt"/><path d="M291.13221,186.57394c-1.58409,1.20698 -3.67334,1.12875 -4.66652,-0.17472c-0.99313,-1.30346 -0.5141,-3.33859 1.06994,-4.54555c1.58409,-1.20698 3.67331,-1.12871 4.66648,0.17475c0.99313,1.30346 0.51414,3.33856 -1.06991,4.54552z" fill="#c5bf00" stroke="none" stroke-width="0" stroke-linecap="butt"/><path d="M355.58476,285.12558l-86.99186,-59.34696l-12.62785,-33.2393l6.2773,-4.3548l13.62277,34.12704l85.97021,59.33811z" fill="#000000" stroke="#000000" stroke-width="0.5" stroke-linecap="round"/><g stroke="#000000" stroke-width="0.5" stroke-linecap="butt"><path d="M306.75576,252.1699l4.81765,-6.99911l13.83273,9.86765l-4.81765,6.99912z" fill="#a1b2b8"/><path d="M310.84396,251.35195l1.49767,-2.1758l9.12063,6.50625l-1.49769,2.17582z" fill="#000000"/></g><path d="M251.85005,234.8825l-10.25004,-34.0129l3.86361,-2.21863l12.40337,33.03895l16.45129,10.48319c0,0 6.84127,4.04667 7.94027,5.27074c2.41053,2.6849 2.28824,8.83524 2.28824,8.83524z" fill="#c6e5f3" stroke="#000000" stroke-width="0.5" stroke-linecap="round"/><path d="M252.39992,235.11933l6.32874,-4.249" fill="none" stroke="#000000" stroke-width="0.5" stroke-linecap="round"/><path d="M315.19991,276.19647c0,0 5.25966,-2.50688 8.70121,-1.42286c0.62809,0.19784 2.53464,0.83197 4.04942,1.60959c2.26932,1.16496 4.22587,2.56045 4.22587,2.56045l14.94626,10.47411l-5.87752,4.1966z" data-paper-data="{&quot;index&quot;:null}" fill="#c6e5f3" stroke="#000000" stroke-width="0.5" stroke-linecap="round"/><g><path d="M553.0531,205.26835c-0.63755,0.66927 -2.21641,1.13811 -4.10553,0.77286c-1.37342,-0.26557 -2.91905,-1.30796 -4.34648,-1.39798c-1.45149,-0.09155 -1.92186,1.60881 -3.16816,1.64546c-1.5957,0.04691 -3.72031,-0.42819 -5.05252,-1.69729c-0.44473,-0.42366 -2.90287,-3.51667 -6.36599,-2.55359c-3.87514,1.07764 -9.1968,5.15208 -14.18627,7.90329c-5.35938,2.95514 -10.00744,5.91282 -14.10263,8.45015c-2.2905,1.41918 -4.26937,1.37841 -5.81277,1.26211c-0.61005,-0.04596 -1.41168,-2.59545 -1.25432,-4.84345c0.19786,-2.82657 0.7629,-4.37128 1.60131,-7.07789c1.20108,-3.87735 2.39163,-4.41979 4.26894,-6.39302c0.52697,-0.55389 1.53073,-0.7246 2.08875,-1.718c0.42894,-0.76363 0.70907,-1.89999 1.76812,-2.23434c0.41886,-0.13224 1.2364,0.12188 1.79751,-0.02253c8.74986,-1.63222 23.15664,-3.31092 23.08923,-3.71155c-0.31935,-1.89809 0.97513,-3.31261 1.54246,-4.75833c1.14133,-2.90844 2.58687,-5.42471 4.76018,-8.62946c1.27294,-1.87705 4.87044,-0.7457 5.85739,-0.48752c0.52922,0.13842 0.94909,-2.74354 2.33146,-3.6853c3.47874,-2.36994 7.35996,-1.69736 10.2743,1.33989c1.11588,1.16294 1.63986,3.22448 1.24493,4.46957c-0.17053,0.53772 -1.61715,1.49583 -1.30176,3.14508c0.25567,1.33717 2.39934,1.81776 2.95986,3.26516c0.73727,1.90373 -0.15611,4.67244 -0.6345,5.20819c-0.84747,0.949 -0.26508,0.72852 -0.19374,0.85471c0.13347,0.23609 0.52038,0.15091 0.78522,0.4032c2.68414,2.55701 2.78565,5.77114 0.92791,7.43196c-0.58573,0.52364 -1.51756,1.88679 -2.08785,2.17262c-1.03877,0.52065 -1.69802,-0.15011 -2.6851,0.88605z" fill="#0193d2" stroke="none" stroke-width="0" stroke-linecap="butt"/><path d="M545.48677,198.159c0,0 -2.51828,0.59751 -2.70757,2.36162c-0.04355,0.40587 -0.312,1.03959 -0.01172,1.72404c0.22002,0.50152 0.38842,1.00764 0.70691,1.46421c0.28498,0.40856 0.73465,0.78099 0.72588,1.01732c-0.02437,0.65679 -0.95476,0.6562 -1.36722,0.96487c-4.73644,3.54461 -9.2069,-6.17796 -14.29175,-3.15435c-9.79619,5.8254 -24.28695,16.14275 -30.53771,17.07299c-5.12228,0.76229 -3.39346,-7.15804 -1.63635,-12.0295c1.47988,-4.10286 7.8209,-9.95943 7.8209,-9.95943c0,0 0.6029,-0.31307 1.20126,-0.40162c4.20566,-0.62238 20.98524,-2.88166 23.56248,-3.26305c0.36543,-0.05409 3.20131,-11.95482 7.78231,-14.45537c2.33451,-1.27429 7.23069,0.85442 9.20314,5.31982c0.92251,2.08844 0.53278,4.8808 -0.1607,7.29419c-0.82062,2.85595 -2.0666,5.1812 -2.0666,5.1812c0,0 5.44326,2.90374 8.56421,0.62798c1.66978,-1.21761 4.2486,-3.87809 4.83988,-6.11511c0.72972,-2.76087 -3.23577,-6.40453 -3.23577,-6.40453" fill="none" stroke="#000000" stroke-width="1" stroke-linecap="round"/><path d="M540.94602,179.75271c0,0 2.80867,-4.19284 4.99858,-4.73793c1.27569,-0.31754 3.31752,-0.90853 5.40807,0.20784c2.12853,1.13662 4.294,3.99838 4.22018,5.6534c-0.16863,3.78009 -5.65614,8.42632 -8.22493,10.32449c-0.75488,0.55779 -1.58465,1.39353 -1.58465,1.39353" fill="none" stroke="#000000" stroke-width="1" stroke-linecap="round"/><path d="M556.27891,194.79836c0,0 2.44375,2.36966 2.70495,3.52633c0.98041,4.34134 -3.65943,6.77813 -7.96189,7.91712c-2.34673,0.62123 -6.65832,-1.5945 -6.65832,-1.5945" fill="none" stroke="#000000" stroke-width="1" stroke-linecap="round"/><path d="M543.95907,197.76513c0,0 -1.95161,0.61131 -3.41745,-0.27669c-1.37059,-0.83029 -2.24898,-3.10495 -2.5945,-4.68804c-0.3648,-1.67145 -0.05061,-4.64167 -0.16137,-5.36616" fill="none" stroke="#000000" stroke-width="1" stroke-linecap="round"/></g><g data-paper-data="{&quot;index&quot;:null}"><path d="M215.81867,160.07092c0.72254,-0.57647 2.35045,-0.82657 4.17246,-0.20813c1.32463,0.44963 2.71438,1.69228 4.11635,1.97532c1.42561,0.28785 2.12256,-1.3329 3.36227,-1.19996c1.58729,0.17024 3.62767,0.92947 4.77519,2.36774c0.38307,0.48013 2.39837,3.87835 5.9602,3.3945c3.98559,-0.54138 9.81128,-3.85536 15.12817,-5.90346c5.71104,-2.1999 10.71774,-4.49893 15.11957,-6.4566c2.46202,-1.09497 4.41701,-0.78582 5.93031,-0.461c0.59816,0.12838 1.04611,2.76313 0.58491,4.96892c-0.5799,2.77352 -1.34947,4.22717 -2.54771,6.79484c-1.71654,3.67831 -2.96971,4.05404 -5.09761,5.75403c-0.5973,0.47718 -1.61497,0.51001 -2.30272,1.41843c-0.52866,0.6983 -0.96053,1.78608 -2.05516,1.9735c-0.43291,0.07413 -1.20839,-0.28868 -1.78392,-0.22181c-8.89046,0.4288 -23.39175,0.13537 -23.37938,0.54145c0.05863,1.92388 -1.41599,3.1495 -2.1744,4.50477c-1.52575,2.72648 -3.29962,5.02312 -5.88803,7.90303c-1.51606,1.68678 -4.92658,0.07735 -5.86934,-0.31248c-0.50552,-0.20901 -1.31288,2.58921 -2.81035,3.33453c-3.76836,1.87554 -7.52231,0.6821 -9.99714,-2.72281c-0.94761,-1.30371 -1.18676,-3.41733 -0.62639,-4.59723c0.24199,-0.50958 1.80531,-1.26235 1.71683,-2.93915c-0.0717,-1.35949 -2.13023,-2.12676 -2.489,-3.63688c-0.47189,-1.98621 0.78922,-4.60797 1.33595,-5.07377c0.9685,-0.82511 0.36157,-0.68576 0.30803,-0.82047c-0.10014,-0.25202 -0.49507,-0.22018 -0.72319,-0.5061c-2.31202,-2.89785 -1.97608,-6.09599 0.09,-7.48913c0.65141,-0.43925 1.75975,-1.66321 2.36357,-1.86894c1.09984,-0.37475 1.66188,0.37933 2.78056,-0.51317z" fill="#0193d2" stroke="none" stroke-width="0" stroke-linecap="butt"/><path d="M222.34941,168.14196c0,0 2.57609,-0.24998 3.00321,-1.97203c0.09826,-0.39621 0.4503,-0.98759 0.24575,-1.70648c-0.14988,-0.52675 -0.248,-1.05105 -0.50151,-1.54665c-0.22686,-0.44348 -0.62178,-0.87353 -0.581,-1.10648c0.11335,-0.64739 1.03504,-0.52045 1.4856,-0.77024c5.17395,-2.86852 8.28258,7.3711 13.73095,5.06606c10.49657,-4.44103 26.25426,-12.69479 32.57346,-12.76751c5.17834,-0.05957 2.38989,7.55258 -0.01254,12.14029c-2.02338,3.86386 -9.10101,8.805 -9.10101,8.805c0,0 -0.63984,0.22828 -1.24466,0.23475c-4.25124,0.04545 -21.18217,0.00499 -23.78733,0.03283c-0.36939,0.00397 -4.79524,11.40929 -9.67338,13.26455c-2.48596,0.94544 -7.04769,-1.82851 -8.39541,-6.52039c-0.63035,-2.19436 0.13501,-4.90793 1.14982,-7.2048c1.20089,-2.71803 2.7511,-4.85252 2.7511,-4.85252c0,0 -4.99848,-3.6161 -8.39959,-1.78525c-1.81966,0.97957 -4.73589,3.26515 -5.62551,5.40115c-1.09791,2.63618 2.33599,6.78464 2.33599,6.78464" fill="none" stroke="#000000" stroke-width="1" stroke-linecap="round"/><path d="M224.34836,186.9944c0,0 -3.35207,3.77254 -5.59573,4.01519c-1.30699,0.14136 -3.41016,0.44955 -5.32974,-0.94038c-1.95443,-1.41515 -3.71121,-4.5445 -3.4133,-6.17416c0.68043,-3.72218 6.74811,-7.58011 9.55089,-9.11183c0.82363,-0.45012 1.7592,-1.16541 1.7592,-1.16541" fill="none" stroke="#000000" stroke-width="1" stroke-linecap="round"/><path d="M211.20085,170.00579c0,0 -2.09927,-2.67959 -2.20098,-3.86101c-0.38172,-4.43427 4.54606,-6.21833 8.96335,-6.76247c2.40936,-0.29676 6.38009,2.48398 6.38009,2.48398" fill="none" stroke="#000000" stroke-width="1" stroke-linecap="round"/><path d="M223.80946,168.73965c0,0 2.01653,-0.3406 3.34821,0.73827c1.24512,1.00874 1.80646,3.38159 1.93379,4.99695c0.13443,1.7055 -0.58022,4.60553 -0.56889,5.33836" fill="none" stroke="#000000" stroke-width="1" stroke-linecap="round"/></g><g data-paper-data="{&quot;index&quot;:null}" stroke-linecap="butt"><path d="M408.67476,179.3635c-4.92941,5.5245 -12.0192,7.24255 -15.83545,3.83736c-3.81626,-3.40518 -2.91389,-10.64413 2.01552,-16.16863c4.92941,-5.5245 12.01923,-7.24255 15.83549,-3.83737c3.81626,3.40518 2.91386,10.64415 -2.01556,16.16865z" fill="#65bee4" stroke="#000000" stroke-width="0.5"/><path d="M405.31309,176.54069c-2.69784,3.02355 -6.50872,4.02572 -8.51184,2.23836c-2.00309,-1.78732 -1.43987,-5.68732 1.25799,-8.71086c2.69784,-3.02355 6.50871,-4.02571 8.51184,-2.23836c2.00309,1.78732 1.43988,5.68733 -1.25797,8.71086z" fill="#000000" stroke="none" stroke-width="0"/><path d="M408.57998,172.8129c-0.91244,1.02258 -2.19094,1.37077 -2.85564,0.77767c-0.6647,-0.5931 -0.46382,-1.90284 0.44863,-2.92542c0.91244,-1.02258 2.19094,-1.37078 2.85562,-0.7777c0.6647,0.5931 0.46385,1.90285 -0.4486,2.92544z" fill="#ffffff" stroke="none" stroke-width="0"/></g><text transform="translate(30.51937,94.70615) scale(1.23697,1.23697)" font-size="40" xml:space="preserve" fill="#9966ff" fill-rule="nonzero" stroke="none" stroke-width="1" stroke-linecap="butt" stroke-linejoin="miter" stroke-miterlimit="10" stroke-dasharray="" stroke-dashoffset="0" font-family="&quot;SpongeBoy&quot;, Sans Serif" font-weight="normal" text-anchor="start" style="mix-blend-mode: normal"><tspan x="0" dy="0">PROJECT</tspan><tspan x="0" dy="46.150000000000006px">BLUEBOB</tspan></text></g></g></svg>