<svg version="1.1" xmlns="http://www.w3.org/2000/svg" xmlns:xlink="http://www.w3.org/1999/xlink" width="71.85714" height="71.07045" viewBox="0,0,71.85714,71.07045"><g transform="translate(-284.07143,-140.96547)"><g data-paper-data="{&quot;isPaintingLayer&quot;:true}" fill-rule="nonzero" stroke-linecap="butt" stroke-linejoin="miter" stroke-miterlimit="10" stroke-dasharray="" stroke-dashoffset="0" style="mix-blend-mode: normal"><path d="M354.07143,170.53593c0,11.24294 -15.2543,20.35714 -34.07143,20.35714c-18.81713,0 -34.07143,-9.1142 -34.07143,-20.35714c0,-11.24294 15.2543,-20.35714 34.07143,-20.35714c18.81713,0 34.07143,9.1142 34.07143,20.35714z" fill="#9966ff" stroke="#000000" stroke-width="2"/><path d="M354.92857,189.60736c0,11.83467 -15.63805,21.42857 -34.92857,21.42857c-19.29052,0 -34.92857,-9.5939 -34.92857,-21.42857c0,-11.83467 15.63805,-21.42857 34.92857,-21.42857c19.29052,0 34.92857,9.5939 34.92857,21.42857z" fill="#9966ff" stroke="#000000" stroke-width="2"/><text transform="translate(294.49999,187.35736) scale(0.5,1.06648)" font-size="40" xml:space="preserve" fill="#d9ff66" fill-rule="nonzero" stroke="none" stroke-width="1" stroke-linecap="butt" stroke-linejoin="miter" stroke-miterlimit="10" stroke-dasharray="" stroke-dashoffset="0" font-family="Sans Serif" font-weight="normal" text-anchor="start" style="mix-blend-mode: normal"><tspan x="0" dy="0">patty</tspan></text></g></g></svg>