<svg version="1.1" xmlns="http://www.w3.org/2000/svg" xmlns:xlink="http://www.w3.org/1999/xlink" width="646.43157" height="277.65943" viewBox="0,0,646.43157,277.65943"><g transform="translate(1.92857,-129.4773)"><g data-paper-data="{&quot;isPaintingLayer&quot;:true}" fill="#9966ff" fill-rule="nonzero" stroke="none" stroke-linecap="butt" stroke-linejoin="miter" stroke-miterlimit="10" stroke-dasharray="" stroke-dashoffset="0" style="mix-blend-mode: normal"><path d="M-1.92857,372.5045v-48.53153h646.43157v48.53153z" stroke-width="NaN"/><path d="M171.38419,336.23375c2.31653,-0.94004 3.25657,1.37649 3.25657,1.37649c6.89364,16.9879 14.11686,34.78799 21.0105,51.77589c0,0 0.94004,2.31653 -1.37649,3.25657c-2.31653,0.94004 -3.25657,-1.37649 -3.25657,-1.37649c-6.89364,-16.9879 -13.78728,-33.97581 -20.68092,-50.96371l-0.32958,-0.81218c0,0 -0.94004,-2.31653 1.37649,-3.25657z" stroke-width="0.5"/><path d="M269.38965,406.35106c-1.76777,1.76777 -3.53553,0 -3.53553,0l-1.47236,-2.29201c-0.70716,-7.78584 -0.20803,-15.52785 -0.75276,-23.28966c-0.60486,-8.61851 -2.74552,-17.47523 -4.57988,-25.91328c-0.68294,-3.1415 -0.93123,-6.40641 -2.02399,-9.42987c-0.24425,-0.67581 -0.53736,-1.3295 -0.8617,-1.96906c-2.96787,-3.09797 -6.02874,-6.1022 -9.06869,-9.14215c0,0 -1.76777,-1.76777 0,-3.53553c1.76777,-1.76777 3.53553,0 3.53553,0c1.07752,1.07752 2.15735,2.1508 3.23472,3.22533c2.06952,-0.96666 3.19526,1.09718 3.19526,1.09718c0.01852,0.03395 1.37305,2.51175 2.61544,4.79602c1.50976,1.57344 2.99665,3.16995 4.44661,4.80571c2.21109,2.49443 4.4466,4.96745 6.63244,7.48403c0.44509,0.51244 0.70784,1.23296 1.29727,1.56953c2.72456,1.55577 5.87416,2.20697 8.79754,3.34604c4.98869,1.94381 10.95382,4.01154 16.32519,4.47635c5.94205,0.51419 11.64849,-0.44067 17.48246,-1.31361l2.4902,-1.95494c0,0 2,-1.5 3.5,0.5c1.5,2 -0.5,3.5 -0.5,3.5l-3.5128,2.54731c-6.66535,1.24936 -13.21223,2.30526 -20.03631,1.6879c-5.80613,-0.52528 -12.17019,-2.69048 -17.56098,-4.78298c-0.78011,-0.30281 -9.39123,-3.63034 -9.84256,-3.90288c-1.98939,-1.20131 -3.88997,-3.53172 -5.63822,-5.81078c0.20736,0.95487 0.35399,1.63171 0.37845,1.74425c1.88236,8.65885 4.05052,17.73365 4.67828,26.57921c0.54963,7.74466 0.0426,15.4673 0.74799,23.23361l0.02839,-0.79126c0,0 1.76777,1.76777 0,3.53553z" stroke-width="0.5"/><text transform="translate(34.93525,169.35619) scale(0.92254,0.92254)" font-size="40" xml:space="preserve" fill="#9966ff" fill-rule="nonzero" stroke="none" stroke-width="1" stroke-linecap="butt" stroke-linejoin="miter" stroke-miterlimit="10" stroke-dasharray="" stroke-dashoffset="0" font-family="Sans Serif" font-weight="normal" text-anchor="start" style="mix-blend-mode: normal"><tspan x="0" dy="0">START BACKGROUND HTFLAND1</tspan><tspan x="0" dy="46.150000000000006px">                             3</tspan></text></g></g></svg>