<svg version="1.1" xmlns="http://www.w3.org/2000/svg" xmlns:xlink="http://www.w3.org/1999/xlink" width="596.09626" height="134.84311" viewBox="0,0,596.09626,134.84311"><g transform="translate(-21.09451,-110.43498)"><g data-paper-data="{&quot;isPaintingLayer&quot;:true}" fill-rule="nonzero" stroke="none" stroke-width="1" stroke-linecap="butt" stroke-linejoin="miter" stroke-miterlimit="10" stroke-dasharray="" stroke-dashoffset="0" style="mix-blend-mode: normal"><path d="M403.23698,221.92398c-0.64179,0.49012 -1.42291,0.76328 -2.23028,0.77991c-0.81793,-0.02773 -1.6089,-0.29933 -2.27133,-0.77991z" fill="#000000"/><g><path d="M616.80202,184.86893c-1.98399,16.4603 -11.93132,31.37445 -26.40763,40.77448c-15.02362,15.13308 -40.77448,14.91416 -59.77976,8.72957c-4.1889,-1.31297 -8.30027,-2.86159 -12.31444,-4.63844c0.56099,-5.60991 1.20408,-10.39886 1.20408,-10.39886c-16.30979,3.03756 -33.15321,5.66464 -50.62603,5.7741c0,0 -1.71034,-6.99187 -2.36711,-10.19362l-3.85852,21.55027l-6.75926,-0.65677c0,0 -0.84833,4.17322 -1.27249,6.40351c-31.96281,-3.35226 -63.09098,-9.33161 -63.09098,-9.33161l0.62941,6.92345c-7.42723,-0.27619 -14.86412,-0.13458 -22.27545,0.42416c-9.0243,0.95663 -17.95932,2.62194 -26.72233,4.98051c-3.11966,-24.83412 -4.10481,-43.63417 -4.33742,-47.88949c-0.23261,-4.25532 -0.56099,-9.16742 -0.56099,-13.91532l-1.09462,5.07629l-7.40235,-0.67045l-0.75255,5.24048c-4.07745,-0.41048 -6.90977,-0.56099 -10.49464,-0.7115l-3.39331,26.58551c-2.07977,-0.16419 -4.29637,-0.38311 -6.71821,-0.53363c-0.45153,2.40816 -0.83464,5.28153 -0.83464,5.28153c-9.4958,-0.76623 -19.64837,-1.5872 -29.37678,-1.69666c-6.92345,6.41719 -19.1558,19.62101 -19.1558,19.62101c0,0 -3.51645,-5.44572 -8.90744,-12.61546c0.20524,1.51878 0.20524,2.6134 0.20524,2.6134l-6.84136,0.76623l0.51994,6.07512c-17.13113,1.23857 -34.17052,3.52328 -51.02283,6.84136c0,0 -1.28618,-13.1354 -2.54498,-27.88537l-21.89234,6.84136l-2.27133,-24.34154c0,0 -7.07396,-1.01252 -14.23002,-1.21776c-2.69549,5.63728 -8.0728,17.63701 -8.0728,17.63701l-4.52898,-2.50393c-1.92926,4.14586 -4.18691,8.82535 -4.18691,8.82535l-4.32374,-3.40699c-14.49597,15.42508 -34.8541,23.97808 -56.01702,23.53426c-18.12959,-0.32839 -33.83734,-9.64631 -43.98992,-26.16134c-10.15257,-16.51503 -14.33948,-43.48365 -3.31122,-61.5722c5.70569,-8.29172 10.27572,-17.13075 18.02013,-24.5331c16.73657,-17.04809 42.23122,-22.0546 64.17191,-12.60178c5.40653,2.3534 10.46952,5.42801 15.05098,9.14005l-19.45681,23.028c-6.29405,7.42971 -14.28475,18.92319 -14.28475,18.92319c12.75229,-3.33858 27.98114,-5.66464 27.98114,-5.66464l12.60178,-18.78636l20.79772,-28.21375l2.57235,1.43668c2.31238,-2.81864 3.74906,-4.77526 5.73306,-7.32025c0,0 22.98695,5.74674 38.65366,9.85155c0,0 1.43668,7.81283 2.20292,11.13773c17.13075,-7.51181 36.57389,-11.91764 57.01586,-9.1811c7.24233,0.92354 14.10865,3.75696 19.89466,8.20962l1.54615,-5.8562c2.4482,-0.43921 4.91979,-0.73617 7.40235,-0.88938l1.36827,-4.96682c13.20108,-0.36823 26.41197,0.1529 39.54303,1.55983c11.93132,1.5051 24.36891,3.20175 35.50664,6.97818l-1.77875,8.03175c9.64191,-1.15367 19.35443,-1.61095 29.06208,-1.36827l2.98283,-13.14909c2.06609,0.13683 5.07629,0.38311 7.40235,0.64309l1.8198,-7.62127c7.51181,0.90306 23.9037,3.68065 29.7599,4.7479c15.5162,2.83232 28.52845,5.88356 28.52845,5.88356c0,-2.36711 0,-3.35226 0,-4.4332l51.33753,-2.73654c0,0 0.16419,17.30863 0.3968,24.14998c0.54731,11.49348 2.18923,25.43616 3.16071,31.59338l8.83903,-2.12082l3.43436,-40.73343c2.25765,-0.64309 4.96683,-1.38195 7.40235,-1.87453c0.27365,-2.76391 0.50626,-4.70685 0.50626,-4.70685c28.32321,-5.97935 56.18121,1.38196 72.20367,24.80676c6.53206,10.97414 9.27264,23.79235 7.79915,36.47811zM83.61414,171.30936c2.39447,-0.86201 5.04892,-1.61456 5.04892,-1.61456c-2.34658,-2.86157 -5.6533,-4.77265 -9.30424,-5.3773c-3.25649,-0.67045 -9.11269,-0.58836 -12.31444,2.73654c-0.77426,2.66491 -0.95639,5.46691 -0.53363,8.20963c1.16303,8.41487 5.08997,12.39654 9.19478,14.48999c1.72519,0.73283 3.6108,1.00624 5.47309,0.7936c0,0 -1.75139,-5.11733 -3.25649,-9.90628l7.5939,-3.07861c0,0 -0.94411,-2.91442 -1.92926,-6.253zM252.92401,160.08954c0.98516,-2.35343 -0.0821,-4.84368 -1.54615,-6.75926c-2.17555,-2.43552 -5.25416,-3.03756 -9.01691,-2.90074c0.7115,7.97702 1.06725,12.39653 1.06725,12.39653c3.29942,-0.31247 6.51103,-1.24068 9.46844,-2.73654zM463.02204,198.12748c-1.76507,-9.72841 -3.17439,-19.34735 -4.39215,-29.29468l-2.73654,-0.49258c-1.94295,13.4501 -4.67949,24.77939 -4.67949,24.77939l-6.84136,-1.21776c-0.28395,1.3962 -0.48498,2.80799 -0.60204,4.22796zM581.71956,178.46542c1.34091,-5.76042 0.98515,-13.60061 -5.2268,-19.14211c-1.53166,-1.24143 -3.23154,-2.25951 -5.04892,-3.02388c-2.07977,21.44081 -3.06493,30.10196 -3.06493,30.10196c3.18027,0.34095 6.39653,-0.03304 9.41371,-1.09462c1.9211,-1.86546 3.27334,-4.23782 3.89957,-6.84135z" fill="#000000"/><path d="M404.99367,115.97648l-4.31005,20.42829l-5.40467,30.95029c-0.20214,19.19622 0.7574,38.38708 2.87337,57.46739c0,0 24.95726,5.28153 63.26886,9.4958c0.27365,-1.60088 5.60991,-33.7142 5.60991,-33.7142l-35.76661,-3.37963l1.05357,-10.00206c6.34878,0.97147 12.06815,2.16187 17.54124,3.11966c1.86152,-7.48747 3.2327,-15.08839 4.10481,-22.75435c-5.62359,-1.24513 -11.73977,-2.29869 -17.03497,-3.10597l0.53363,-10.33045l33.41318,6.84136c2.42184,-11.3156 3.79011,-20.11359 5.26784,-30.71769c-12.4477,-3.65858 -25.0925,-6.60964 -37.87374,-8.83903c-18.62217,-3.40699 -33.27636,-5.4594 -33.27636,-5.4594zM511.32202,119.10982c-0.13597,18.94021 1.03439,37.86725 3.50277,56.64642c3.44804,-0.95779 25.70981,-6.62243 31.1829,-7.9907c1.0262,11.99974 2.1345,23.45217 3.69433,35.26035c-16.59713,5.55518 -46.86329,11.95869 -73.77718,11.95869l-0.19156,-0.76623c-3.86726,-17.16223 -6.81779,-34.51825 -8.83903,-51.9943c0,0 3.43436,0.68414 5.47308,0.94411c2.25765,-9.85155 4.07745,-21.35871 5.95198,-34.20678c-4.57002,-1.36827 -10.2894,-3.0102 -14.54472,-4.10481c0,-1.20408 0,-2.25765 0,-3.06493l34.20678,-1.97031zM361.33213,128.45511c-2.62708,11.61662 -5.81515,30.64927 -5.81515,30.64927l-33.61842,-2.33974l-1.7377,7.3613l19.52523,2.2166l-4.09113,19.82625c-5.89725,-0.57467 -11.95869,-1.03988 -18.08854,-1.36827l-4.10481,31.90808c-8.62011,-0.76623 -17.24022,-1.423 -25.86032,-1.76507c0,0 5.77411,-4.55634 14.13424,-10.78198l-21.18084,-25.38143c10.00206,-8.23699 11.98605,-22.43965 7.71705,-34.32992c-0.68184,-1.87948 -1.49571,-3.7084 -2.43552,-5.47308c1.36827,-6.84136 2.50394,-11.69872 4.31006,-18.32115c22.09758,-1.0262 51.63855,2.16187 71.27324,7.85388M394.26642,136.33635c-0.21892,7.29288 -0.99884,14.58577 -1.1083,21.98812c-0.43785,14.92784 -0.10946,29.84199 0.77991,44.3183c0,0 1.62824,20.22305 2.1345,27.92641c-14.91416,0.32839 -29.23995,0.97147 -44.29094,5.07628c-3.5575,-27.0644 -3.77643,-48.62835 -4.58371,-68.48197l2.49025,0.19156l0.60204,-5.70569l7.0466,0.53363c0,0 1.71034,-11.72608 4.44688,-24.51942c10.23467,-1.51878 23.21956,-2.51762 32.48276,-1.36827M297.73489,203.42268c-11.51644,7.78537 -22.21603,16.71545 -31.93545,26.65392c-7.33543,-9.44896 -13.97531,-19.41793 -19.86729,-29.82831c0,0 0.20524,14.87311 1.45037,28.97998c-14.18897,1.08093 -30.67664,3.96799 -45.15295,6.40351c0,0 -1.39563,-9.96101 -2.20292,-21.18084l17.18548,-5.08997l-0.61572,-2.42184l2.65445,-0.7115c0,0 -6.99187,-24.71097 -10.37149,-39.67986c-4.31006,-19.01897 -6.69085,-32.6059 -6.69085,-32.6059c17.69175,-8.18226 38.61261,-12.39654 59.50611,-8.75694c9.81353,1.68162 18.25243,7.90803 22.75435,16.78868c5.08997,8.83903 4.41952,20.67458 0.12314,27.89905c-2.04536,3.17043 -4.42119,6.115 -7.08764,8.7843zM260.69579,155.91631c1.68752,-2.55382 1.8141,-5.83439 0.32839,-8.51065c-2.95547,-6.21195 -12.1092,-7.79914 -21.46818,-3.69433c0.60204,7.77178 2.28502,21.76919 2.28502,21.76919c6.84136,-1.45037 14.65418,-2.846 18.85477,-9.5779zM206.006,163.75651c5.66464,24.68361 10.53569,40.69238 10.41254,40.65133c-8.19594,2.2166 -26.27081,7.08764 -37.77797,11.42506l-2.12082,-23.61636c-7.8152,-1.10357 -15.69634,-1.675 -23.58899,-1.71034l-9.74209,22.80908c-2.09345,-1.31354 -5.24048,-3.62592 -5.24048,-3.62592c0.53205,-1.20664 0.98901,-2.445 1.36827,-3.70801c-2.87337,-14.13424 -6.84136,-29.93777 -10.15257,-43.96255c0,0 -1.72402,0.13683 -2.95547,0.30102l14.87311,-21.89234c0,0 16.92552,-23.45217 20.27778,-27.87168c11.61662,3.13334 23.84897,6.29405 35.95817,9.03059c0,0 5.91093,30.26615 8.64747,42.15643zM175.64406,172.81446c-0.3147,-11.06931 -1.14935,-25.62772 -1.14935,-25.62772c-4.47425,7.78546 -8.92113,16.33716 -12.68387,24.62888c0,0 6.52665,0.09578 13.83322,0.99884zM608.11351,151.04527c6.74558,10.94617 8.51065,25.6414 5.78779,39.06414c-2.98283,16.58345 -17.89699,32.93429 -34.0289,37.68219c-16.95288,4.85736 -38.84522,0.32838 -51.15966,-4.55634c0,0 0.16419,-2.55867 0.54731,-5.71937c5.41835,-1.21776 10.71356,-2.65445 16.02246,-4.20059c-0.06841,-1.92926 -0.35575,-4.18691 -0.54731,-6.51297c0,0 4.28269,-1.5051 7.10133,-2.5313c-1.84716,-14.9552 -2.83232,-25.92874 -4.20059,-38.87258c-5.26784,1.1904 -12.62914,2.94178 -12.62914,2.94178c1.54615,-14.03846 3.66697,-43.04581 3.66697,-43.04581c27.32437,-5.66464 54.56665,2.16187 69.48081,25.80559zM589.21768,178.23281c3.59855,-5.96566 4.09113,-15.36568 0.60204,-21.48186c-2.98283,-5.62359 -9.52316,-10.43991 -18.89582,-10.94617c-1.43668,12.49232 -4.37847,42.4164 -4.37847,42.4164c9.82419,1.35459 17.9654,-2.20292 22.7133,-9.93365zM136.93567,205.92662c-8.97586,13.5322 -29.45888,23.79424 -51.48804,25.16251c-19.11289,1.55595 -37.36428,-8.23095 -46.64436,-25.01199c-7.10133,-12.506 -10.27572,-23.64372 -9.16742,-37.79165c0.82096,-13.69639 6.84136,-25.29933 16.89815,-35.24666c15.47514,-17.02129 41.11655,-22.20704 61.99636,-13.36801c4.67133,2.06686 9.11863,4.60687 13.27223,7.58022l-26.91389,30.3893c-1.68949,-1.58551 -3.65597,-2.84703 -5.80147,-3.7217c-4.88473,-1.91558 -13.51852,-2.54498 -19.03265,3.07861c-5.51413,5.62359 -7.2792,14.38053 -5.0626,22.2344c1.5872,5.29521 5.7741,11.89028 11.16509,13.25855c5.04892,1.31354 11.7124,0.8757 15.13308,-3.8722l-5.15838,-15.61197c13.55177,-4.21661 27.48309,-7.09911 41.59544,-8.60643l7.53917,32.51012zM84.81822,125.78698c-0.02737,-0.28734 -1.5051,-0.60204 -2.2166,-0.60204c-1.39434,-0.06694 -2.78842,0.13753 -4.10481,0.60204c-0.94411,0.3968 -2.39447,1.21776 -2.39447,1.5051c0,0.28734 3.01019,0.36943 4.6658,0c1.43102,-0.24864 2.80398,-0.75886 4.05008,-1.5051zM90.59233,121.69585c0,-0.45153 -3.39331,-0.99884 -6.36246,-0.99884c-3.21836,0.04763 -6.41261,0.56387 -9.48212,1.53246c-3.5575,1.35459 -4.55634,2.76391 -4.48793,3.10597c0.06841,0.34207 8.93481,-0.88938 11.15141,-1.25881c2.2166,-0.36943 9.1811,-1.92926 9.1811,-2.38079zM63.65107,122.85888c0.12314,0.43785 13.43642,-2.39447 15.73512,-2.81864c2.2987,-0.42416 14.47631,-1.88822 14.40789,-2.46289c-0.06841,-0.57467 -3.54382,-1.7377 -9.4137,-1.36827c-5.30821,0.43321 -10.54769,1.48477 -15.61198,3.13334c-2.27133,0.7115 -5.30889,2.69549 -5.11733,3.51645zM63.71948,219.80089c-0.27365,0.41048 1.08093,1.27249 1.84716,1.62824c0.9654,0.49429 1.98468,0.87537 3.03756,1.13566c1.05357,0.21892 2.14819,0.46521 2.42184,-0.13682c0.27365,-0.60204 -1.87453,-1.36827 -3.2428,-1.79244c-1.36827,-0.42416 -3.83116,-1.28618 -4.10481,-0.83464zM37.01082,151.22314c0.38312,0.24629 8.82535,-10.85039 10.30308,-12.67019c1.47773,-1.8198 10.46727,-10.31676 10.05679,-10.71356c-0.41048,-0.3968 -4.61107,1.06725 -8.71589,4.98051c-3.75202,3.42446 -7.02851,7.336 -9.74209,11.6303c-1.27249,2.03872 -2.59971,6.26668 -1.9019,6.77294zM50.40621,140.53694c1.45037,-1.72402 5.55518,-6.86872 5.26784,-7.21079c-0.28734,-0.34207 -2.66813,0.61572 -4.89841,2.58603c-2.51876,2.2458 -4.71508,4.8289 -6.52665,7.676c-1.95663,3.25649 -1.5872,4.62476 -1.17671,4.7479c1.16303,0.34207 5.88357,-6.07512 7.33393,-7.78546zM39.46004,175.46891c0.57467,-0.05473 0.4789,-2.14818 0.45153,-4.09113c-0.04105,-1.69666 -0.19156,-4.02272 -0.68414,-4.02272c-0.28734,-0.02737 -0.72518,1.32723 -0.86201,2.02504c-0.25571,1.27033 -0.29734,2.57447 -0.12314,3.85852c0.12314,1.01252 0.58836,2.24396 1.21776,2.24396zM34.23324,185.34782c0.46521,-0.05473 -0.56099,-4.52898 -0.64309,-13.69639c-0.05473,-6.97818 1.08093,-14.5584 0.47889,-14.57209c-0.60204,-0.01368 -2.51762,4.20059 -3.33858,9.67367c-0.69331,4.4992 -0.47461,9.09188 0.64309,13.50484c0.56099,2.36711 2.01136,5.19943 2.85969,5.10365zM34.69845,166.50672c-0.45759,3.00623 -0.4622,6.06404 -0.01368,9.07164c0.53363,2.81864 1.64193,4.76158 2.28501,4.57002c0.64309,-0.19156 0.54731,-7.79914 0.54731,-10.04311c0,-4.48793 -0.10946,-9.59158 -0.56099,-9.65999c-0.45153,-0.06841 -1.88822,3.13334 -2.25765,6.07512zM41.66295,202.93011c-1.1083,-1.91558 -6.06144,-11.72608 -6.58138,-11.49348c-0.51994,0.23261 -0.41048,3.53014 1.75139,8.51065c1.71565,4.12351 4.02007,7.9765 6.84135,11.43875c1.40932,1.75139 3.95431,3.81747 4.84368,3.11966c0.91674,-0.75255 -5.1447,-8.7843 -6.85504,-11.57557zM44.86471,200.74087c-1.12198,-1.88822 -5.10365,-7.70337 -5.47309,-7.55285c-0.36943,0.15051 0.35575,3.20175 1.36827,5.86988c0.91717,2.68776 2.30729,5.18999 4.10481,7.38867c2.46289,2.76391 3.51646,3.51646 4.10481,2.95547c0.47889,-0.45153 -2.98283,-6.77294 -4.10481,-8.66116zM48.09383,200.74087c-0.84833,-1.36827 -2.47657,-3.29753 -2.73654,-3.18807c-0.25997,0.10946 0.0821,1.39564 0.27366,2.05241c0.30775,1.16075 0.84256,2.24898 1.57351,3.20175c0.61572,0.75255 1.87453,1.49142 2.24397,1.29986c0.57467,-0.27365 -0.50626,-1.99768 -1.35459,-3.36595zM53.3343,140.60536c-0.20524,-0.20524 -1.54615,0.57467 -2.1345,1.01252c-1.1554,0.8868 -2.13462,1.98203 -2.88705,3.22912c-0.47889,0.93043 -1.0262,2.77759 -0.7115,2.95547c0.3147,0.17788 2.46289,-1.91558 3.51646,-3.28385c1.05357,-1.43668 2.42184,-3.70801 2.2166,-3.91326zM76.40336,228.80411c0.05473,-0.28734 -3.13334,-1.5872 -6.08881,-2.73654c2.47657,0.25997 3.57119,0.04105 3.69433,-0.45153c0.12314,-0.49258 -3.35226,-1.95663 -8.20962,-3.54382c-1.77875,-0.56099 -6.62243,-1.8198 -6.84136,-1.54615c-0.21892,0.27365 0.95779,1.27249 2.51762,2.32606c-3.16071,-1.09462 -6.69085,-2.46289 -7.0466,-2.01136c-0.35575,0.45153 1.66929,2.42184 5.7741,4.70685c3.27794,1.80949 6.8412,3.04506 10.53569,3.65328c1.94295,0.3968 5.50045,0.49258 5.66464,-0.3968zM120.70797,211.50917c0.21892,0.23261 0.90306,-0.24629 1.5872,-0.64309c0.75167,-0.33085 1.43763,-0.79433 2.02504,-1.36827c0.64309,-0.75255 0.86201,-1.43668 0.64309,-1.65561c-0.46521,-0.47889 -1.9019,0.69782 -2.73654,1.66929c-0.93043,1.06725 -1.7377,1.76507 -1.51878,1.99768zM118.06721,216.36653c0.19156,0.35575 3.33858,-1.1904 5.03524,-2.25765c1.27192,-0.7388 2.40236,-1.69782 3.33858,-2.83232c1.32722,-1.62824 1.984,-2.98283 1.61456,-3.33858c-0.36943,-0.35575 -2.49026,0.95779 -4.81632,3.10598c-1.34091,1.23145 -5.36362,4.96682 -5.17206,5.32257zM96.24329,222.60584c0.04105,0.36943 1.09462,0.32838 1.92926,0.15051c0.75747,-0.10351 1.49809,-0.30591 2.20292,-0.60204c0.86201,-0.54731 1.31354,-1.08093 1.1904,-1.36827c-0.25997,-0.60204 -1.54615,-0.06841 -2.83232,0.45153c-1.39564,0.56099 -2.5313,0.99884 -2.49025,1.36827zM105.38334,226.54646c1.83348,-0.84833 4.67949,-3.18807 4.07745,-3.76274c-0.32839,-0.30102 -5.56886,1.35459 -8.75694,2.32606l0.3147,-0.13683c2.846,-1.32722 3.77643,-2.4492 3.58487,-2.91442c-0.19156,-0.46521 -3.36595,0.27365 -6.38983,1.25881c-1.7377,0.53363 -6.30773,2.27133 -6.28036,2.73654c0.02737,0.46521 2.09345,0.45153 4.46056,0.21892h0.15051c-3.39331,0.90306 -9.19478,2.38079 -9.22215,2.94178c-0.02737,0.56099 2.2987,0.75255 7.00555,0.24629c3.82598,-0.36959 7.56296,-1.37784 11.05563,-2.98283zM132.11936,207.86956c-0.54731,-0.19156 -3.37963,2.65445 -8.4696,6.6498c-1.49141,1.17671 -8.11385,5.88356 -7.89493,6.41719c0.21892,0.53363 3.53014,-0.61572 7.55286,-3.09229c2.53757,-1.39961 4.84496,-3.18091 6.84136,-5.28153c1.23145,-1.57351 2.79127,-4.4332 1.97031,-4.69317z" fill="#f78f0c"/></g></g></g></svg>