<svg version="1.1" xmlns="http://www.w3.org/2000/svg" xmlns:xlink="http://www.w3.org/1999/xlink" width="69.81804" height="103.19037" viewBox="0,0,69.81804,103.19037"><g transform="translate(-203.14659,-102.2978)"><g data-paper-data="{&quot;isPaintingLayer&quot;:true}" fill-rule="nonzero" stroke-linecap="butt" stroke-linejoin="miter" stroke-miterlimit="10" stroke-dasharray="" stroke-dashoffset="0" style="mix-blend-mode: normal"><path d="M268.41983,110.61231c0,3.27727 2.56107,17.50836 -8.98553,21.26839c-6.98865,2.27578 -20.07799,5.38825 -29.39299,3.84193c-6.30732,-1.04703 -10.83955,-4.01663 -12.27321,-4.01663c-7.0492,0 -12.22628,-8.04068 -12.22628,-14.64467c0,-6.60398 5.7145,-11.95757 12.7637,-11.95757c2.47569,0 11.00595,4.70166 18.94061,4.8124c6.29794,0.0879 13.20746,-4.59282 18.7339,-5.02312c7.3361,-0.5712 12.43981,3.27552 12.43981,5.71926z" fill="#bf9d79" stroke="none" stroke-width="0"/><path d="M229.73243,106.22213c0.78296,-0.05781 1.44402,0.27272 1.44402,0.27272l0.91045,0.59866c2.24951,0.32654 4.65246,0.78836 6.89942,0.07574c1.07803,-0.34189 2.02705,-1.06218 3.13141,-1.306c0.29547,-0.06524 4.97341,-0.05106 5.52746,-0.05106c5.84697,0 10.79062,-0.17601 16.33058,1.81938c2.80518,1.01037 4.46612,0.66397 6.34357,3.60282c1.476,2.31043 1.16399,7.53171 1.14893,10.04024c-0.16922,0.52615 -1.74793,5.53894 -2.01603,5.93866c-2.13739,3.18681 -5.28453,4.46887 -8.409,6.29148c-8.80635,5.13703 -20.12336,7.17274 -30.30302,4.8769c-2.64199,-0.59585 -5.66823,-1.26053 -8.21901,-2.17123c-3.2184,-1.14907 -5.227,-2.83999 -8.63092,-3.29826c-2.48254,-1.08132 -4.95851,-2.51884 -6.70188,-4.59078c-5.28657,-6.28292 -6.28419,-20.6047 2.49873,-24.76189c5.3686,-2.5411 13.00254,-0.86233 18.11978,1.66943c0.74139,0.3668 1.35874,0.69689 1.9255,0.9932zM235.70682,112.49767c-0.84005,0.54618 -1.87207,0.37417 -1.87207,0.37417c-6.89398,-1.1688 -14.53648,-8.08773 -21.92847,-4.83176c-1.83088,0.80645 -2.88244,3.23947 -3.2825,5.03382c-1.3413,6.01608 0.68637,12.55133 6.61653,15.02398c4.23817,0.63721 7.40998,3.20221 11.59929,4.15568c10.96509,2.49561 21.74591,2.72973 31.69402,-3.07334c2.26016,-1.31843 5.13156,-2.27252 6.66538,-4.59558c0.35712,-0.54089 0.56671,-1.1519 0.73251,-1.78431c0.6889,-0.49905 1.19849,-1.0938 1.26788,-1.64498c0.03888,-0.0496 0.07806,-0.10032 0.11756,-0.15218c1.14859,-1.50794 0.55092,-4.4377 0.39452,-6.01717c-0.98705,-9.96824 -15.56893,-9.31048 -22.16533,-5.35264c-0.28336,0.0858 -0.54738,0.2161 -0.78394,0.38277c-0.44672,0.15954 -0.83633,0.38491 -1.16228,0.65472c-0.15984,0.02218 -0.31885,0.05178 -0.47686,0.09029c-0.96685,0.23564 -1.77746,0.92113 -2.73085,1.2064c-1.56887,0.46943 -3.12549,0.58626 -4.68539,0.53014z" fill="#000000" stroke="none" stroke-width="0.5"/><path d="M270.37684,125.9406c-0.19002,0.41456 -0.49009,0.76818 -0.86281,1.02347c-0.5625,0.52679 -1.11377,0.74288 -1.58286,0.43015c-1.30056,-0.08829 -2.32816,-1.17123 -2.32816,-2.49419c0,-0.01604 0.00016,-0.03204 0.00046,-0.048c-0.32985,-0.64963 -0.00651,-1.40253 0.44547,-2.13905c0.62883,-0.48023 1.08506,-1.03828 1.15045,-1.55765c0.03888,-0.0496 0.07806,-0.10032 0.11756,-0.15218c1.14859,-1.50794 0.55092,-4.4377 0.39452,-6.01717c-0.06554,-0.66184 -0.19101,-1.27684 -0.37009,-1.84715c-0.40747,-2.97789 -1.69869,-5.55604 -5.2795,-5.56715c-0.33333,-0.00104 -0.66037,-0.00357 -0.98173,-0.00699c-5.0136,-1.44516 -11.65471,-0.25893 -15.53401,2.06865c-0.28336,0.0858 -0.54738,0.2161 -0.78394,0.38277c-0.41578,0.14849 -0.78209,0.35401 -1.09364,0.59931c-0.14896,0.04795 -0.29226,0.09298 -0.42828,0.13439c-0.31213,0.15717 -0.6617,0.25086 -1.03177,0.26412c-0.03023,0.00109 -0.06059,0.00163 -0.09109,0.00163c-1.38071,0 -2.5,-1.11929 -2.5,-2.5c0,-1.12804 0.74711,-2.08159 1.77351,-2.39281c1.90304,-1.33916 4.79307,-1.69756 6.89545,-2.29874c6.88092,-1.96762 21.77285,-3.52282 23.91026,6.40562c0.5765,2.67791 0.75243,5.52517 0.52778,8.30643c0.14553,0.3171 0.22667,0.66989 0.22667,1.04163c0.15997,0.88027 -1.12139,4.30265 -2.57427,6.36291z" fill="#000000" stroke="none" stroke-width="0.5"/><path d="M258.43665,190.70055c-0.33897,2.36863 -2.16987,11.01303 -9.2118,14.03762c-0.19097,0.08348 -4.33258,1.16403 -7.46922,1.12825c-3.78355,-0.04293 -6.75071,-1.27376 -7.63871,-1.54092c-5.78394,-1.73174 -10.56529,-6.86496 -11.77555,-12.94276c-0.49413,-2.48789 -0.10264,-5.56972 0.3151,-8.05761c0.58962,-3.51596 0.78297,-7.36349 2.04574,-10.70294c1.66858,-4.42715 3.39684,-9.10238 6.50007,-13.43651c0.55858,-0.77761 4.24903,-3.88569 4.94368,-4.21725c1.12997,-0.51026 2.34312,-0.8117 3.58065,-0.88972c2.05529,-0.03578 4.31348,1.16165 6.05845,2.14679c6.99419,3.94771 10.57484,12.93082 12.17419,20.42074c0.95157,4.62429 1.113,9.37618 0.47742,14.05431z" fill="#f0e6d2" stroke="#000000" stroke-width="1.5"/><path d="M225.49185,185.77112c-0.17941,-1.28323 -0.58919,-6.02203 1.87739,-8.34548c0.88993,-0.60074 1.86631,-1.06234 2.89546,-1.3689c1.0989,-0.22259 2.23186,-0.21665 3.32824,0.01745c2.59577,0.31803 5.23312,2.51863 6.53941,5.59006c0.53331,1.25539 0.78712,2.91876 0.95083,4.27221c0.26974,1.90524 0.39302,3.82838 0.36877,5.75252c-0.08545,2.50548 0.06618,5.23248 -0.62313,7.83503c-0.39121,0.95677 -0.87714,1.8721 -1.45055,2.73231c-0.37777,0.37724 -0.83577,0.66453 -1.33994,0.84048c-0.83118,0.23576 -1.91226,-0.1609 -2.75737,-0.49603c-3.3853,-1.34923 -6.03602,-5.70997 -7.70448,-9.48254c-1.01375,-2.34721 -1.71462,-4.81736 -2.08463,-7.34713z" fill="#faf0e6" stroke="#000000" stroke-width="0"/></g></g></svg>